<mxfile host="app.diagrams.net" agent="Mozilla/5.0 (Windows NT 10.0; Win64; x64) AppleWebKit/537.36 (KHTML, like Gecko) Chrome/128.0.0.0 YaBrowser/24.10.0.0 Safari/537.36" version="24.8.6">
  <diagram name="Страница — 1" id="o88R4cm1RsE_d5T4giNz">
    <mxGraphModel dx="4097" dy="2623" grid="0" gridSize="10" guides="0" tooltips="1" connect="1" arrows="0" fold="1" page="1" pageScale="1" pageWidth="4681" pageHeight="3300" math="0" shadow="0">
      <root>
        <mxCell id="0" />
        <mxCell id="1" parent="0" />
        <mxCell id="314BIVoi5Dq9aIjE5J6p-5" value="" style="group" parent="1" vertex="1" connectable="0">
          <mxGeometry x="1151" y="1123" width="2667" height="1493" as="geometry" />
        </mxCell>
        <mxCell id="x5LUi_rpzoDitqhtqjU1-48" value="" style="rounded=0;whiteSpace=wrap;html=1;fillColor=#f5f5f5;fontColor=#333333;strokeColor=#666666;movable=1;resizable=1;rotatable=1;deletable=1;editable=1;locked=0;connectable=1;container=0;" parent="314BIVoi5Dq9aIjE5J6p-5" vertex="1">
          <mxGeometry x="132" width="2535" height="1493" as="geometry" />
        </mxCell>
        <mxCell id="pEQ9tG_tW22OpXUgut7k-186" value="" style="endArrow=none;html=1;rounded=0;strokeWidth=6;movable=1;resizable=1;rotatable=1;deletable=1;editable=1;locked=0;connectable=1;" parent="314BIVoi5Dq9aIjE5J6p-5" edge="1">
          <mxGeometry width="50" height="50" relative="1" as="geometry">
            <mxPoint x="2507" y="1128" as="sourcePoint" />
            <mxPoint x="2504" y="527" as="targetPoint" />
          </mxGeometry>
        </mxCell>
        <mxCell id="1Za2iILWm-K3IH-scTkG-5" value="&lt;span style=&quot;font-size: 31px;&quot;&gt;cur_time&lt;/span&gt;" style="edgeLabel;html=1;align=center;verticalAlign=middle;resizable=1;points=[];movable=1;rotatable=1;deletable=1;editable=1;locked=0;connectable=1;container=0;fontSize=31;" parent="pEQ9tG_tW22OpXUgut7k-186" vertex="1" connectable="0">
          <mxGeometry x="-0.0485" y="1" relative="1" as="geometry">
            <mxPoint as="offset" />
          </mxGeometry>
        </mxCell>
        <mxCell id="pEQ9tG_tW22OpXUgut7k-187" value="" style="endArrow=classic;html=1;rounded=0;exitX=1;exitY=0.478;exitDx=0;exitDy=0;exitPerimeter=0;strokeWidth=6;entryX=1;entryY=0.478;entryDx=0;entryDy=0;entryPerimeter=0;movable=1;resizable=1;rotatable=1;deletable=1;editable=1;locked=0;connectable=1;" parent="314BIVoi5Dq9aIjE5J6p-5" target="x5LUi_rpzoDitqhtqjU1-13" edge="1">
          <mxGeometry width="50" height="50" relative="1" as="geometry">
            <mxPoint x="2505" y="526" as="sourcePoint" />
            <mxPoint x="2430" y="562" as="targetPoint" />
          </mxGeometry>
        </mxCell>
        <mxCell id="pEQ9tG_tW22OpXUgut7k-184" value="&lt;font style=&quot;font-size: 34px;&quot;&gt;Interruption&lt;br&gt;&lt;/font&gt;&lt;div style=&quot;font-size: 34px;&quot;&gt;&lt;font style=&quot;font-size: 34px;&quot;&gt;Control&lt;/font&gt;&lt;/div&gt;" style="rounded=1;whiteSpace=wrap;html=1;fillColor=#d5e8d4;strokeColor=#82b366;movable=1;resizable=1;rotatable=1;deletable=1;editable=1;locked=0;connectable=1;container=0;" parent="314BIVoi5Dq9aIjE5J6p-5" vertex="1">
          <mxGeometry x="732" y="80" width="458" height="200" as="geometry" />
        </mxCell>
        <mxCell id="KtC0RGwLtPz54HOnVGRa-10" value="" style="endArrow=classic;html=1;rounded=0;exitX=0.001;exitY=0.694;exitDx=0;exitDy=0;strokeWidth=4;exitPerimeter=0;movable=1;resizable=1;rotatable=1;deletable=1;editable=1;locked=0;connectable=1;" parent="314BIVoi5Dq9aIjE5J6p-5" source="pEQ9tG_tW22OpXUgut7k-184" edge="1">
          <mxGeometry width="50" height="50" relative="1" as="geometry">
            <mxPoint x="738" y="222" as="sourcePoint" />
            <mxPoint x="60" y="218" as="targetPoint" />
          </mxGeometry>
        </mxCell>
        <mxCell id="KtC0RGwLtPz54HOnVGRa-19" value="&lt;font style=&quot;font-size: 41px;&quot;&gt;Output_Ir&lt;/font&gt;" style="edgeLabel;html=1;align=center;verticalAlign=middle;resizable=1;points=[];movable=1;rotatable=1;deletable=1;editable=1;locked=0;connectable=1;container=0;fontSize=41;" parent="KtC0RGwLtPz54HOnVGRa-10" vertex="1" connectable="0">
          <mxGeometry x="-0.0982" y="-2" relative="1" as="geometry">
            <mxPoint as="offset" />
          </mxGeometry>
        </mxCell>
        <mxCell id="pEQ9tG_tW22OpXUgut7k-190" value="" style="endArrow=classic;html=1;rounded=0;strokeWidth=4;entryX=0.001;entryY=0.285;entryDx=0;entryDy=0;entryPerimeter=0;movable=1;resizable=1;rotatable=1;deletable=1;editable=1;locked=0;connectable=1;" parent="314BIVoi5Dq9aIjE5J6p-5" target="pEQ9tG_tW22OpXUgut7k-184" edge="1">
          <mxGeometry width="50" height="50" relative="1" as="geometry">
            <mxPoint x="60" y="137" as="sourcePoint" />
            <mxPoint x="704" y="135" as="targetPoint" />
          </mxGeometry>
        </mxCell>
        <mxCell id="pEQ9tG_tW22OpXUgut7k-197" value="&lt;font style=&quot;font-size: 41px;&quot;&gt;Input_Ir&lt;/font&gt;" style="edgeLabel;html=1;align=center;verticalAlign=middle;resizable=1;points=[];movable=1;rotatable=1;deletable=1;editable=1;locked=0;connectable=1;container=0;fontSize=41;" parent="pEQ9tG_tW22OpXUgut7k-190" vertex="1" connectable="0">
          <mxGeometry x="0.024" y="1" relative="1" as="geometry">
            <mxPoint as="offset" />
          </mxGeometry>
        </mxCell>
        <mxCell id="ylIvJoLo8r8Wq8B95oO6-1" style="edgeStyle=orthogonalEdgeStyle;rounded=0;orthogonalLoop=1;jettySize=auto;html=1;exitX=0.5;exitY=0;exitDx=0;exitDy=0;strokeWidth=3;movable=1;resizable=1;rotatable=1;deletable=1;editable=1;locked=0;connectable=1;" parent="314BIVoi5Dq9aIjE5J6p-5" edge="1">
          <mxGeometry relative="1" as="geometry">
            <Array as="points">
              <mxPoint x="938.5" y="356" />
              <mxPoint x="937.5" y="356" />
            </Array>
            <mxPoint x="938" y="433" as="sourcePoint" />
            <mxPoint x="938.0333333333333" y="280" as="targetPoint" />
          </mxGeometry>
        </mxCell>
        <mxCell id="LSRvoWRFU9yCn0dySuCl-1" value="&lt;span style=&quot;font-size: 34px;&quot;&gt;cur_time&lt;/span&gt;" style="edgeLabel;html=1;align=center;verticalAlign=middle;resizable=1;points=[];fontSize=34;movable=1;rotatable=1;deletable=1;editable=1;locked=0;connectable=1;container=0;" parent="ylIvJoLo8r8Wq8B95oO6-1" vertex="1" connectable="0">
          <mxGeometry x="-0.2896" y="1" relative="1" as="geometry">
            <mxPoint y="-18" as="offset" />
          </mxGeometry>
        </mxCell>
        <mxCell id="dlrdvuk18dDA_AN_ycqq-1" value="RTC Top" style="text;html=1;align=center;verticalAlign=middle;whiteSpace=wrap;rounded=0;fontSize=54;movable=1;resizable=1;rotatable=1;deletable=1;editable=1;locked=0;connectable=1;container=0;" parent="314BIVoi5Dq9aIjE5J6p-5" vertex="1">
          <mxGeometry x="132" y="4" width="309" height="49" as="geometry" />
        </mxCell>
        <mxCell id="x5LUi_rpzoDitqhtqjU1-13" value="&lt;div style=&quot;&quot;&gt;&lt;font style=&quot;font-size: 35px;&quot;&gt;Register File&lt;/font&gt;&lt;/div&gt;" style="rounded=1;whiteSpace=wrap;html=1;fillColor=#d5e8d4;strokeColor=#82b366;movable=1;resizable=1;rotatable=1;deletable=1;editable=1;locked=0;connectable=1;container=0;" parent="314BIVoi5Dq9aIjE5J6p-5" vertex="1">
          <mxGeometry x="705" y="433" width="1567" height="200" as="geometry" />
        </mxCell>
        <mxCell id="W8ohIJW_K3gzpoWCc0p_-2" style="edgeStyle=orthogonalEdgeStyle;rounded=0;orthogonalLoop=1;jettySize=auto;html=1;exitX=1;exitY=0.5;exitDx=0;exitDy=0;endArrow=none;strokeWidth=5;movable=1;resizable=1;rotatable=1;deletable=1;editable=1;locked=0;connectable=1;" parent="314BIVoi5Dq9aIjE5J6p-5" source="x5LUi_rpzoDitqhtqjU1-17" edge="1">
          <mxGeometry relative="1" as="geometry">
            <mxPoint x="2505.000228881836" y="1129" as="targetPoint" />
          </mxGeometry>
        </mxCell>
        <mxCell id="x5LUi_rpzoDitqhtqjU1-17" value="&lt;font style=&quot;font-size: 38px;&quot;&gt;Counter&lt;/font&gt;" style="rounded=1;whiteSpace=wrap;html=1;fillColor=#f8cecc;strokeColor=#b85450;movable=1;resizable=1;rotatable=1;deletable=1;editable=1;locked=0;connectable=1;container=0;" parent="314BIVoi5Dq9aIjE5J6p-5" vertex="1">
          <mxGeometry x="1655" y="903" width="646" height="451" as="geometry" />
        </mxCell>
        <mxCell id="pEQ9tG_tW22OpXUgut7k-176" value="" style="endArrow=classic;html=1;rounded=0;strokeWidth=3;exitX=0.269;exitY=0;exitDx=0;exitDy=0;exitPerimeter=0;entryX=0.915;entryY=1;entryDx=0;entryDy=0;entryPerimeter=0;movable=1;resizable=1;rotatable=1;deletable=1;editable=1;locked=0;connectable=1;" parent="314BIVoi5Dq9aIjE5J6p-5" edge="1">
          <mxGeometry width="50" height="50" relative="1" as="geometry">
            <mxPoint x="1978" y="633" as="sourcePoint" />
            <mxPoint x="1978" y="903" as="targetPoint" />
          </mxGeometry>
        </mxCell>
        <mxCell id="pEQ9tG_tW22OpXUgut7k-177" value="&lt;span style=&quot;font-size: 31px; background-color: rgb(251, 251, 251);&quot;&gt;12/24 mode&lt;/span&gt;" style="edgeLabel;html=1;align=center;verticalAlign=middle;resizable=1;points=[];movable=1;rotatable=1;deletable=1;editable=1;locked=0;connectable=1;container=0;fontSize=31;" parent="pEQ9tG_tW22OpXUgut7k-176" vertex="1" connectable="0">
          <mxGeometry x="0.0142" relative="1" as="geometry">
            <mxPoint as="offset" />
          </mxGeometry>
        </mxCell>
        <mxCell id="pEQ9tG_tW22OpXUgut7k-180" value="" style="endArrow=classic;html=1;rounded=0;strokeWidth=3;exitX=0.269;exitY=0;exitDx=0;exitDy=0;exitPerimeter=0;entryX=0.915;entryY=1;entryDx=0;entryDy=0;entryPerimeter=0;movable=1;resizable=1;rotatable=1;deletable=1;editable=1;locked=0;connectable=1;" parent="314BIVoi5Dq9aIjE5J6p-5" edge="1">
          <mxGeometry width="50" height="50" relative="1" as="geometry">
            <mxPoint x="2160" y="630" as="sourcePoint" />
            <mxPoint x="2160" y="900" as="targetPoint" />
          </mxGeometry>
        </mxCell>
        <mxCell id="pEQ9tG_tW22OpXUgut7k-181" value="en_preset" style="edgeLabel;html=1;align=center;verticalAlign=middle;resizable=1;points=[];movable=1;rotatable=1;deletable=1;editable=1;locked=0;connectable=1;container=0;fontSize=29;" parent="pEQ9tG_tW22OpXUgut7k-180" vertex="1" connectable="0">
          <mxGeometry x="0.0142" relative="1" as="geometry">
            <mxPoint as="offset" />
          </mxGeometry>
        </mxCell>
        <mxCell id="IosS1MbOQu_52CRlZIkm-47" value="" style="rounded=1;whiteSpace=wrap;html=1;fillColor=#fff2cc;strokeColor=#d6b656;movable=1;resizable=1;rotatable=1;deletable=1;editable=1;locked=0;connectable=1;container=0;" parent="314BIVoi5Dq9aIjE5J6p-5" vertex="1">
          <mxGeometry x="606.7781157042432" y="933" width="886.923579708405" height="410" as="geometry" />
        </mxCell>
        <mxCell id="pEQ9tG_tW22OpXUgut7k-182" value="" style="endArrow=classic;html=1;rounded=0;strokeWidth=5;movable=1;resizable=1;rotatable=1;deletable=1;editable=1;locked=0;connectable=1;entryX=0.157;entryY=0.017;entryDx=0;entryDy=0;entryPerimeter=0;exitX=0.075;exitY=0.995;exitDx=0;exitDy=0;exitPerimeter=0;" parent="314BIVoi5Dq9aIjE5J6p-5" target="IosS1MbOQu_52CRlZIkm-2" edge="1">
          <mxGeometry width="50" height="50" relative="1" as="geometry">
            <mxPoint x="1210.4549999999995" y="637" as="sourcePoint" />
            <mxPoint x="1210.0011513065742" y="1029.2228571428573" as="targetPoint" />
          </mxGeometry>
        </mxCell>
        <mxCell id="pEQ9tG_tW22OpXUgut7k-183" value="gen_en" style="edgeLabel;html=1;align=center;verticalAlign=middle;resizable=1;points=[];movable=1;rotatable=1;deletable=1;editable=1;locked=0;connectable=1;container=0;fontSize=41;" parent="pEQ9tG_tW22OpXUgut7k-182" vertex="1" connectable="0">
          <mxGeometry x="-0.0136" y="2" relative="1" as="geometry">
            <mxPoint as="offset" />
          </mxGeometry>
        </mxCell>
        <mxCell id="IosS1MbOQu_52CRlZIkm-3" style="edgeStyle=orthogonalEdgeStyle;rounded=0;orthogonalLoop=1;jettySize=auto;html=1;exitX=0.5;exitY=0;exitDx=0;exitDy=0;entryX=0;entryY=0.5;entryDx=0;entryDy=0;endArrow=classic;strokeWidth=3;movable=1;resizable=1;rotatable=1;deletable=1;editable=1;locked=0;connectable=1;" parent="314BIVoi5Dq9aIjE5J6p-5" source="AUGKBMQogiBOkBI0AVK3-81" target="IosS1MbOQu_52CRlZIkm-2" edge="1">
          <mxGeometry relative="1" as="geometry">
            <mxPoint x="1042.970040151" y="1134.0952380952376" as="sourcePoint" />
            <Array as="points" />
          </mxGeometry>
        </mxCell>
        <mxCell id="IosS1MbOQu_52CRlZIkm-1" value="&lt;font style=&quot;font-size: 27px;&quot;&gt;Ring Oscillator&lt;/font&gt;" style="rounded=1;whiteSpace=wrap;html=1;fillColor=#e1d5e7;strokeColor=#9673a6;movable=1;resizable=1;rotatable=1;deletable=1;editable=1;locked=0;connectable=1;container=0;" parent="314BIVoi5Dq9aIjE5J6p-5" vertex="1">
          <mxGeometry x="722.0959622233784" y="1021.997142857143" width="174.47676977870265" height="117.14285714285714" as="geometry" />
        </mxCell>
        <mxCell id="IosS1MbOQu_52CRlZIkm-2" value="&lt;font style=&quot;font-size: 28px;&quot;&gt;Clk Divider&lt;/font&gt;" style="rounded=1;whiteSpace=wrap;html=1;fillColor=#e1d5e7;strokeColor=#9673a6;movable=1;resizable=1;rotatable=1;deletable=1;editable=1;locked=0;connectable=1;container=0;" parent="314BIVoi5Dq9aIjE5J6p-5" vertex="1">
          <mxGeometry x="1185.9537529846466" y="1085.2857142857142" width="174.47676977870265" height="117.14285714285714" as="geometry" />
        </mxCell>
        <mxCell id="IosS1MbOQu_52CRlZIkm-48" value="&lt;font style=&quot;font-size: 28px;&quot;&gt;Clk 1Hz generator&lt;/font&gt;" style="text;html=1;align=center;verticalAlign=middle;whiteSpace=wrap;rounded=0;movable=1;resizable=1;rotatable=1;deletable=1;editable=1;locked=0;connectable=1;container=0;" parent="314BIVoi5Dq9aIjE5J6p-5" vertex="1">
          <mxGeometry x="606.78" y="933" width="190" height="80" as="geometry" />
        </mxCell>
        <mxCell id="AUGKBMQogiBOkBI0AVK3-81" value="&lt;font style=&quot;font-size: 22px;&quot;&gt;Clk Mux&lt;/font&gt;" style="shape=trapezoid;perimeter=trapezoidPerimeter;whiteSpace=wrap;html=1;fixedSize=1;direction=south;fillColor=#e1d5e7;strokeColor=#9673a6;movable=1;resizable=1;rotatable=1;deletable=1;editable=1;locked=0;connectable=1;container=0;" parent="314BIVoi5Dq9aIjE5J6p-5" vertex="1">
          <mxGeometry x="955.7316552616485" y="1026.7142857142858" width="87.23838488935132" height="234.28571428571428" as="geometry" />
        </mxCell>
        <mxCell id="AUGKBMQogiBOkBI0AVK3-87" value="" style="endArrow=classic;html=1;rounded=0;strokeWidth=5;movable=1;resizable=1;rotatable=1;deletable=1;editable=1;locked=0;connectable=1;" parent="314BIVoi5Dq9aIjE5J6p-5" edge="1">
          <mxGeometry width="50" height="50" relative="1" as="geometry">
            <mxPoint y="1205" as="sourcePoint" />
            <mxPoint x="955.7316552616485" y="1210.1766666666663" as="targetPoint" />
          </mxGeometry>
        </mxCell>
        <mxCell id="AUGKBMQogiBOkBI0AVK3-88" value="&lt;font style=&quot;font-size: 41px;&quot;&gt;Clk_external&lt;/font&gt;" style="edgeLabel;html=1;align=center;verticalAlign=middle;resizable=1;points=[];movable=1;rotatable=1;deletable=1;editable=1;locked=0;connectable=1;container=0;fontSize=41;" parent="AUGKBMQogiBOkBI0AVK3-87" vertex="1" connectable="0">
          <mxGeometry x="-0.0136" y="2" relative="1" as="geometry">
            <mxPoint x="-126" y="-2" as="offset" />
          </mxGeometry>
        </mxCell>
        <mxCell id="x5LUi_rpzoDitqhtqjU1-8" value="" style="endArrow=classic;html=1;rounded=0;entryX=0.75;entryY=1;entryDx=0;entryDy=0;strokeWidth=4;movable=1;resizable=1;rotatable=1;deletable=1;editable=1;locked=0;connectable=1;" parent="314BIVoi5Dq9aIjE5J6p-5" edge="1">
          <mxGeometry width="50" height="50" relative="1" as="geometry">
            <mxPoint x="896.572732002081" y="1080.5685714285714" as="sourcePoint" />
            <mxPoint x="954.7316552616485" y="1080.5685714285719" as="targetPoint" />
          </mxGeometry>
        </mxCell>
        <mxCell id="pEQ9tG_tW22OpXUgut7k-167" value="" style="endArrow=classic;html=1;rounded=0;exitX=0.503;exitY=0.997;exitDx=0;exitDy=0;exitPerimeter=0;strokeWidth=5;movable=1;resizable=1;rotatable=1;deletable=1;editable=1;locked=0;connectable=1;" parent="314BIVoi5Dq9aIjE5J6p-5" edge="1">
          <mxGeometry width="50" height="50" relative="1" as="geometry">
            <mxPoint x="1332" y="635" as="sourcePoint" />
            <mxPoint x="1332.8337529846467" y="1088.609523809524" as="targetPoint" />
          </mxGeometry>
        </mxCell>
        <mxCell id="pEQ9tG_tW22OpXUgut7k-168" value="&lt;font style=&quot;font-size: 31px;&quot;&gt;Const&lt;/font&gt;" style="edgeLabel;html=1;align=center;verticalAlign=middle;resizable=1;points=[];movable=1;rotatable=1;deletable=1;editable=1;locked=0;connectable=1;container=0;fontSize=31;" parent="pEQ9tG_tW22OpXUgut7k-167" vertex="1" connectable="0">
          <mxGeometry x="-0.0136" y="2" relative="1" as="geometry">
            <mxPoint as="offset" />
          </mxGeometry>
        </mxCell>
        <mxCell id="pEQ9tG_tW22OpXUgut7k-169" value="" style="endArrow=classic;html=1;rounded=0;exitX=0.262;exitY=1.012;exitDx=0;exitDy=0;exitPerimeter=0;strokeWidth=5;movable=1;resizable=1;rotatable=1;deletable=1;editable=1;locked=0;connectable=1;" parent="314BIVoi5Dq9aIjE5J6p-5" edge="1">
          <mxGeometry width="50" height="50" relative="1" as="geometry">
            <mxPoint x="998" y="634" as="sourcePoint" />
            <mxPoint x="999.0618941667667" y="1040.0928571428576" as="targetPoint" />
          </mxGeometry>
        </mxCell>
        <mxCell id="pEQ9tG_tW22OpXUgut7k-170" value="&lt;font style=&quot;font-size: 41px;&quot;&gt;Sel_clk&lt;/font&gt;" style="edgeLabel;html=1;align=center;verticalAlign=middle;resizable=1;points=[];movable=1;rotatable=1;deletable=1;editable=1;locked=0;connectable=1;container=0;fontSize=41;" parent="pEQ9tG_tW22OpXUgut7k-169" vertex="1" connectable="0">
          <mxGeometry x="0.019" relative="1" as="geometry">
            <mxPoint as="offset" />
          </mxGeometry>
        </mxCell>
        <mxCell id="IosS1MbOQu_52CRlZIkm-5" style="edgeStyle=orthogonalEdgeStyle;rounded=0;orthogonalLoop=1;jettySize=auto;html=1;exitX=1;exitY=0.5;exitDx=0;exitDy=0;endArrow=classic;entryX=0.003;entryY=0.536;entryDx=0;entryDy=0;entryPerimeter=0;strokeWidth=3;movable=1;resizable=1;rotatable=1;deletable=1;editable=1;locked=0;connectable=1;" parent="314BIVoi5Dq9aIjE5J6p-5" source="IosS1MbOQu_52CRlZIkm-2" target="x5LUi_rpzoDitqhtqjU1-17" edge="1">
          <mxGeometry relative="1" as="geometry">
            <mxPoint x="1462.2086384675927" y="1143.8571428571431" as="targetPoint" />
          </mxGeometry>
        </mxCell>
        <mxCell id="IosS1MbOQu_52CRlZIkm-6" value="&lt;font style=&quot;font-size: 33px;&quot;&gt;Clk_1Hz&lt;/font&gt;" style="edgeLabel;html=1;align=center;verticalAlign=middle;resizable=1;points=[];movable=1;rotatable=1;deletable=1;editable=1;locked=0;connectable=1;container=0;fontSize=33;" parent="IosS1MbOQu_52CRlZIkm-5" vertex="1" connectable="0">
          <mxGeometry x="0.0101" y="-1" relative="1" as="geometry">
            <mxPoint x="-1" y="-1" as="offset" />
          </mxGeometry>
        </mxCell>
        <mxCell id="314BIVoi5Dq9aIjE5J6p-2" value="" style="shape=flexArrow;endArrow=classic;startArrow=classic;html=1;rounded=0;entryX=0;entryY=0.5;entryDx=0;entryDy=0;startWidth=113.33333333333334;startSize=28.366666666666667;width=55;endWidth=96.66666666666667;endSize=24.71666666666667;movable=1;resizable=1;rotatable=1;deletable=1;editable=1;locked=0;connectable=1;fillColor=#99FFFF;fillStyle=solid;" parent="314BIVoi5Dq9aIjE5J6p-5" target="x5LUi_rpzoDitqhtqjU1-13" edge="1">
          <mxGeometry width="100" height="100" relative="1" as="geometry">
            <mxPoint x="-11" y="530" as="sourcePoint" />
            <mxPoint x="444" y="456" as="targetPoint" />
          </mxGeometry>
        </mxCell>
        <mxCell id="314BIVoi5Dq9aIjE5J6p-4" value="APB 3.0" style="edgeLabel;html=1;align=center;verticalAlign=middle;resizable=1;points=[];fontSize=32;movable=1;rotatable=1;deletable=1;editable=1;locked=0;connectable=1;labelBackgroundColor=none;" parent="314BIVoi5Dq9aIjE5J6p-2" vertex="1" connectable="0">
          <mxGeometry x="-0.0035" y="-4" relative="1" as="geometry">
            <mxPoint as="offset" />
          </mxGeometry>
        </mxCell>
        <mxCell id="YkT5N6oE5cckf6qh70ge-3" value="" style="endArrow=classic;html=1;rounded=0;strokeWidth=3;exitX=0.269;exitY=0;exitDx=0;exitDy=0;exitPerimeter=0;entryX=0.915;entryY=1;entryDx=0;entryDy=0;entryPerimeter=0;movable=1;resizable=1;rotatable=1;deletable=1;editable=1;locked=0;connectable=1;" edge="1" parent="314BIVoi5Dq9aIjE5J6p-5">
          <mxGeometry width="50" height="50" relative="1" as="geometry">
            <mxPoint x="1778" y="633" as="sourcePoint" />
            <mxPoint x="1778" y="903" as="targetPoint" />
          </mxGeometry>
        </mxCell>
        <mxCell id="YkT5N6oE5cckf6qh70ge-4" value="&lt;span style=&quot;font-size: 31px; background-color: rgb(251, 251, 251);&quot;&gt;enable&lt;/span&gt;" style="edgeLabel;html=1;align=center;verticalAlign=middle;resizable=1;points=[];movable=1;rotatable=1;deletable=1;editable=1;locked=0;connectable=1;container=0;fontSize=31;" vertex="1" connectable="0" parent="YkT5N6oE5cckf6qh70ge-3">
          <mxGeometry x="0.0142" relative="1" as="geometry">
            <mxPoint as="offset" />
          </mxGeometry>
        </mxCell>
        <mxCell id="314BIVoi5Dq9aIjE5J6p-7" value="" style="rounded=0;whiteSpace=wrap;html=1;fillColor=#f5f5f5;fontColor=#333333;strokeColor=#666666;movable=1;resizable=1;rotatable=1;deletable=1;editable=1;locked=0;connectable=1;container=0;" parent="1" vertex="1">
          <mxGeometry x="1342" y="3053" width="2535" height="1493" as="geometry" />
        </mxCell>
        <mxCell id="314BIVoi5Dq9aIjE5J6p-8" value="" style="endArrow=none;html=1;rounded=0;strokeWidth=6;movable=1;resizable=1;rotatable=1;deletable=1;editable=1;locked=0;connectable=1;" parent="1" edge="1">
          <mxGeometry width="50" height="50" relative="1" as="geometry">
            <mxPoint x="3717" y="4181" as="sourcePoint" />
            <mxPoint x="3714" y="3580" as="targetPoint" />
          </mxGeometry>
        </mxCell>
        <mxCell id="314BIVoi5Dq9aIjE5J6p-10" value="" style="endArrow=classic;html=1;rounded=0;exitX=1;exitY=0.478;exitDx=0;exitDy=0;exitPerimeter=0;strokeWidth=6;entryX=1;entryY=0.478;entryDx=0;entryDy=0;entryPerimeter=0;movable=1;resizable=1;rotatable=1;deletable=1;editable=1;locked=0;connectable=1;" parent="1" target="314BIVoi5Dq9aIjE5J6p-21" edge="1">
          <mxGeometry width="50" height="50" relative="1" as="geometry">
            <mxPoint x="3715" y="3579" as="sourcePoint" />
            <mxPoint x="3640" y="3615" as="targetPoint" />
          </mxGeometry>
        </mxCell>
        <mxCell id="314BIVoi5Dq9aIjE5J6p-11" value="&lt;font style=&quot;font-size: 34px;&quot;&gt;Interruption&lt;br&gt;&lt;/font&gt;&lt;div style=&quot;font-size: 34px;&quot;&gt;&lt;font style=&quot;font-size: 34px;&quot;&gt;Control&lt;/font&gt;&lt;/div&gt;" style="rounded=1;whiteSpace=wrap;html=1;fillColor=#d5e8d4;strokeColor=#82b366;movable=1;resizable=1;rotatable=1;deletable=1;editable=1;locked=0;connectable=1;container=0;" parent="1" vertex="1">
          <mxGeometry x="1942" y="3133" width="458" height="200" as="geometry" />
        </mxCell>
        <mxCell id="314BIVoi5Dq9aIjE5J6p-14" value="" style="endArrow=classic;html=1;rounded=0;exitX=0.001;exitY=0.694;exitDx=0;exitDy=0;strokeWidth=4;exitPerimeter=0;movable=1;resizable=1;rotatable=1;deletable=1;editable=1;locked=0;connectable=1;" parent="1" source="314BIVoi5Dq9aIjE5J6p-11" edge="1">
          <mxGeometry width="50" height="50" relative="1" as="geometry">
            <mxPoint x="1948" y="3275" as="sourcePoint" />
            <mxPoint x="1270" y="3271" as="targetPoint" />
          </mxGeometry>
        </mxCell>
        <mxCell id="314BIVoi5Dq9aIjE5J6p-16" value="" style="endArrow=classic;html=1;rounded=0;strokeWidth=3;entryX=0.001;entryY=0.285;entryDx=0;entryDy=0;entryPerimeter=0;movable=1;resizable=1;rotatable=1;deletable=1;editable=1;locked=0;connectable=1;" parent="1" target="314BIVoi5Dq9aIjE5J6p-11" edge="1">
          <mxGeometry width="50" height="50" relative="1" as="geometry">
            <mxPoint x="1270" y="3190" as="sourcePoint" />
            <mxPoint x="1914" y="3188" as="targetPoint" />
          </mxGeometry>
        </mxCell>
        <mxCell id="314BIVoi5Dq9aIjE5J6p-18" style="edgeStyle=orthogonalEdgeStyle;rounded=0;orthogonalLoop=1;jettySize=auto;html=1;exitX=0.5;exitY=0;exitDx=0;exitDy=0;strokeWidth=3;movable=1;resizable=1;rotatable=1;deletable=1;editable=1;locked=0;connectable=1;" parent="1" edge="1">
          <mxGeometry relative="1" as="geometry">
            <Array as="points">
              <mxPoint x="2306.5" y="3410" />
              <mxPoint x="2305.5" y="3410" />
            </Array>
            <mxPoint x="2306" y="3487" as="sourcePoint" />
            <mxPoint x="2306.0333333333333" y="3334" as="targetPoint" />
          </mxGeometry>
        </mxCell>
        <mxCell id="314BIVoi5Dq9aIjE5J6p-20" value="RTC Top" style="text;html=1;align=center;verticalAlign=middle;whiteSpace=wrap;rounded=0;fontSize=54;movable=1;resizable=1;rotatable=1;deletable=1;editable=1;locked=0;connectable=1;container=0;" parent="1" vertex="1">
          <mxGeometry x="1342" y="3057" width="309" height="49" as="geometry" />
        </mxCell>
        <mxCell id="314BIVoi5Dq9aIjE5J6p-21" value="&lt;div style=&quot;&quot;&gt;&lt;font style=&quot;font-size: 35px;&quot;&gt;Register File&lt;/font&gt;&lt;/div&gt;" style="rounded=1;whiteSpace=wrap;html=1;fillColor=#d5e8d4;strokeColor=#82b366;movable=1;resizable=1;rotatable=1;deletable=1;editable=1;locked=0;connectable=1;container=0;" parent="1" vertex="1">
          <mxGeometry x="1915" y="3486" width="1567" height="200" as="geometry" />
        </mxCell>
        <mxCell id="314BIVoi5Dq9aIjE5J6p-22" style="edgeStyle=orthogonalEdgeStyle;rounded=0;orthogonalLoop=1;jettySize=auto;html=1;exitX=1;exitY=0.5;exitDx=0;exitDy=0;endArrow=none;strokeWidth=5;movable=1;resizable=1;rotatable=1;deletable=1;editable=1;locked=0;connectable=1;" parent="1" source="314BIVoi5Dq9aIjE5J6p-23" edge="1">
          <mxGeometry relative="1" as="geometry">
            <mxPoint x="3715.000228881836" y="4182" as="targetPoint" />
          </mxGeometry>
        </mxCell>
        <mxCell id="314BIVoi5Dq9aIjE5J6p-23" value="&lt;font style=&quot;font-size: 38px;&quot;&gt;Counter&lt;/font&gt;" style="rounded=1;whiteSpace=wrap;html=1;fillColor=#f8cecc;strokeColor=#b85450;movable=1;resizable=1;rotatable=1;deletable=1;editable=1;locked=0;connectable=1;container=0;" parent="1" vertex="1">
          <mxGeometry x="2865" y="3956" width="646" height="451" as="geometry" />
        </mxCell>
        <mxCell id="314BIVoi5Dq9aIjE5J6p-26" value="" style="endArrow=classic;html=1;rounded=0;strokeWidth=3;exitX=0.269;exitY=0;exitDx=0;exitDy=0;exitPerimeter=0;entryX=0.915;entryY=1;entryDx=0;entryDy=0;entryPerimeter=0;movable=1;resizable=1;rotatable=1;deletable=1;editable=1;locked=0;connectable=1;" parent="1" edge="1">
          <mxGeometry width="50" height="50" relative="1" as="geometry">
            <mxPoint x="3272" y="3685" as="sourcePoint" />
            <mxPoint x="3272" y="3955" as="targetPoint" />
          </mxGeometry>
        </mxCell>
        <mxCell id="314BIVoi5Dq9aIjE5J6p-28" value="" style="rounded=1;whiteSpace=wrap;html=1;fillColor=#fff2cc;strokeColor=#d6b656;movable=1;resizable=1;rotatable=1;deletable=1;editable=1;locked=0;connectable=1;container=0;" parent="1" vertex="1">
          <mxGeometry x="1816.7781157042432" y="3986" width="886.923579708405" height="410" as="geometry" />
        </mxCell>
        <mxCell id="314BIVoi5Dq9aIjE5J6p-29" value="" style="endArrow=classic;html=1;rounded=0;strokeWidth=5;movable=1;resizable=1;rotatable=1;deletable=1;editable=1;locked=0;connectable=1;entryX=0.157;entryY=0.017;entryDx=0;entryDy=0;entryPerimeter=0;exitX=0.075;exitY=0.995;exitDx=0;exitDy=0;exitPerimeter=0;" parent="1" target="314BIVoi5Dq9aIjE5J6p-33" edge="1">
          <mxGeometry width="50" height="50" relative="1" as="geometry">
            <mxPoint x="2420.4549999999995" y="3690" as="sourcePoint" />
            <mxPoint x="2420.0011513065742" y="4082.2228571428573" as="targetPoint" />
          </mxGeometry>
        </mxCell>
        <mxCell id="314BIVoi5Dq9aIjE5J6p-31" style="edgeStyle=orthogonalEdgeStyle;rounded=0;orthogonalLoop=1;jettySize=auto;html=1;exitX=0.5;exitY=0;exitDx=0;exitDy=0;entryX=0;entryY=0.5;entryDx=0;entryDy=0;endArrow=classic;strokeWidth=3;movable=1;resizable=1;rotatable=1;deletable=1;editable=1;locked=0;connectable=1;" parent="1" source="314BIVoi5Dq9aIjE5J6p-35" target="314BIVoi5Dq9aIjE5J6p-33" edge="1">
          <mxGeometry relative="1" as="geometry">
            <mxPoint x="2252.970040151" y="4187.095238095238" as="sourcePoint" />
            <Array as="points" />
          </mxGeometry>
        </mxCell>
        <mxCell id="314BIVoi5Dq9aIjE5J6p-32" value="&lt;font style=&quot;font-size: 27px;&quot;&gt;Ring Oscillator&lt;/font&gt;" style="rounded=1;whiteSpace=wrap;html=1;fillColor=#e1d5e7;strokeColor=#9673a6;movable=1;resizable=1;rotatable=1;deletable=1;editable=1;locked=0;connectable=1;container=0;" parent="1" vertex="1">
          <mxGeometry x="1932.0959622233784" y="4074.997142857143" width="174.47676977870265" height="117.14285714285714" as="geometry" />
        </mxCell>
        <mxCell id="314BIVoi5Dq9aIjE5J6p-33" value="&lt;font style=&quot;font-size: 28px;&quot;&gt;Clk Divider&lt;/font&gt;" style="rounded=1;whiteSpace=wrap;html=1;fillColor=#e1d5e7;strokeColor=#9673a6;movable=1;resizable=1;rotatable=1;deletable=1;editable=1;locked=0;connectable=1;container=0;" parent="1" vertex="1">
          <mxGeometry x="2395.9537529846466" y="4138.285714285714" width="174.47676977870265" height="117.14285714285714" as="geometry" />
        </mxCell>
        <mxCell id="314BIVoi5Dq9aIjE5J6p-34" value="&lt;font style=&quot;font-size: 28px;&quot;&gt;Clk 1Hz generator&lt;/font&gt;" style="text;html=1;align=center;verticalAlign=middle;whiteSpace=wrap;rounded=0;movable=1;resizable=1;rotatable=1;deletable=1;editable=1;locked=0;connectable=1;container=0;" parent="1" vertex="1">
          <mxGeometry x="1816.78" y="3986" width="190" height="80" as="geometry" />
        </mxCell>
        <mxCell id="314BIVoi5Dq9aIjE5J6p-35" value="&lt;font style=&quot;font-size: 22px;&quot;&gt;Clk Mux&lt;/font&gt;" style="shape=trapezoid;perimeter=trapezoidPerimeter;whiteSpace=wrap;html=1;fixedSize=1;direction=south;fillColor=#e1d5e7;strokeColor=#9673a6;movable=1;resizable=1;rotatable=1;deletable=1;editable=1;locked=0;connectable=1;container=0;" parent="1" vertex="1">
          <mxGeometry x="2165.7316552616485" y="4079.714285714286" width="87.23838488935132" height="234.28571428571428" as="geometry" />
        </mxCell>
        <mxCell id="314BIVoi5Dq9aIjE5J6p-36" value="" style="endArrow=classic;html=1;rounded=0;strokeWidth=5;movable=1;resizable=1;rotatable=1;deletable=1;editable=1;locked=0;connectable=1;" parent="1" edge="1">
          <mxGeometry width="50" height="50" relative="1" as="geometry">
            <mxPoint x="1210" y="4258" as="sourcePoint" />
            <mxPoint x="2165.7316552616485" y="4263.176666666666" as="targetPoint" />
          </mxGeometry>
        </mxCell>
        <mxCell id="YkT5N6oE5cckf6qh70ge-5" value="clk_external" style="edgeLabel;html=1;align=center;verticalAlign=middle;resizable=0;points=[];fontSize=41;" vertex="1" connectable="0" parent="314BIVoi5Dq9aIjE5J6p-36">
          <mxGeometry x="-0.1857" relative="1" as="geometry">
            <mxPoint as="offset" />
          </mxGeometry>
        </mxCell>
        <mxCell id="314BIVoi5Dq9aIjE5J6p-38" value="" style="endArrow=classic;html=1;rounded=0;entryX=0.75;entryY=1;entryDx=0;entryDy=0;strokeWidth=4;movable=1;resizable=1;rotatable=1;deletable=1;editable=1;locked=0;connectable=1;" parent="1" edge="1">
          <mxGeometry width="50" height="50" relative="1" as="geometry">
            <mxPoint x="2106.572732002081" y="4133.568571428572" as="sourcePoint" />
            <mxPoint x="2164.7316552616485" y="4133.568571428572" as="targetPoint" />
          </mxGeometry>
        </mxCell>
        <mxCell id="314BIVoi5Dq9aIjE5J6p-41" value="" style="endArrow=classic;html=1;rounded=0;exitX=0.262;exitY=1.012;exitDx=0;exitDy=0;exitPerimeter=0;strokeWidth=5;movable=1;resizable=1;rotatable=1;deletable=1;editable=1;locked=0;connectable=1;" parent="1" edge="1">
          <mxGeometry width="50" height="50" relative="1" as="geometry">
            <mxPoint x="2208" y="3687" as="sourcePoint" />
            <mxPoint x="2209.0618941667667" y="4093.0928571428576" as="targetPoint" />
          </mxGeometry>
        </mxCell>
        <mxCell id="314BIVoi5Dq9aIjE5J6p-43" style="edgeStyle=orthogonalEdgeStyle;rounded=0;orthogonalLoop=1;jettySize=auto;html=1;exitX=1;exitY=0.5;exitDx=0;exitDy=0;endArrow=classic;entryX=0.003;entryY=0.536;entryDx=0;entryDy=0;entryPerimeter=0;strokeWidth=3;movable=1;resizable=1;rotatable=1;deletable=1;editable=1;locked=0;connectable=1;" parent="1" source="314BIVoi5Dq9aIjE5J6p-33" target="314BIVoi5Dq9aIjE5J6p-23" edge="1">
          <mxGeometry relative="1" as="geometry">
            <mxPoint x="2672.2086384675927" y="4196.857142857143" as="targetPoint" />
          </mxGeometry>
        </mxCell>
        <mxCell id="314BIVoi5Dq9aIjE5J6p-58" value="Clk_1Hz" style="edgeLabel;html=1;align=center;verticalAlign=middle;resizable=0;points=[];fontSize=32;labelBackgroundColor=default;" parent="314BIVoi5Dq9aIjE5J6p-43" vertex="1" connectable="0">
          <mxGeometry x="0.1793" y="-2" relative="1" as="geometry">
            <mxPoint x="-45" y="-5" as="offset" />
          </mxGeometry>
        </mxCell>
        <mxCell id="314BIVoi5Dq9aIjE5J6p-45" value="" style="shape=flexArrow;endArrow=classic;startArrow=classic;html=1;rounded=0;entryX=0;entryY=0.5;entryDx=0;entryDy=0;startWidth=113.33333333333334;startSize=28.366666666666667;width=55;endWidth=96.66666666666667;endSize=24.71666666666667;movable=1;resizable=1;rotatable=1;deletable=1;editable=1;locked=0;connectable=1;fillColor=#99FFFF;" parent="1" target="314BIVoi5Dq9aIjE5J6p-21" edge="1">
          <mxGeometry width="100" height="100" relative="1" as="geometry">
            <mxPoint x="1189" y="3583" as="sourcePoint" />
            <mxPoint x="1654" y="3509" as="targetPoint" />
          </mxGeometry>
        </mxCell>
        <mxCell id="314BIVoi5Dq9aIjE5J6p-46" value="APB 3.0" style="edgeLabel;html=1;align=center;verticalAlign=middle;resizable=1;points=[];fontSize=32;movable=1;rotatable=1;deletable=1;editable=1;locked=0;connectable=1;container=0;labelBackgroundColor=none;" parent="314BIVoi5Dq9aIjE5J6p-45" vertex="1" connectable="0">
          <mxGeometry x="-0.0035" y="-4" relative="1" as="geometry">
            <mxPoint as="offset" />
          </mxGeometry>
        </mxCell>
        <mxCell id="314BIVoi5Dq9aIjE5J6p-50" value="" style="endArrow=classic;html=1;rounded=0;entryX=0.174;entryY=1.001;entryDx=0;entryDy=0;fontSize=31;strokeWidth=5;entryPerimeter=0;exitX=0;exitY=0.224;exitDx=0;exitDy=0;exitPerimeter=0;" parent="1" edge="1" target="314BIVoi5Dq9aIjE5J6p-11">
          <mxGeometry width="50" height="50" relative="1" as="geometry">
            <mxPoint x="1342" y="3404.4320000000002" as="sourcePoint" />
            <mxPoint x="2022" y="3350" as="targetPoint" />
            <Array as="points">
              <mxPoint x="1489" y="3406" />
              <mxPoint x="2022" y="3406" />
            </Array>
          </mxGeometry>
        </mxCell>
        <mxCell id="314BIVoi5Dq9aIjE5J6p-51" value="CLK_APB" style="edgeLabel;html=1;align=center;verticalAlign=middle;resizable=0;points=[];fontSize=33;" parent="314BIVoi5Dq9aIjE5J6p-50" vertex="1" connectable="0">
          <mxGeometry x="0.0256" y="1" relative="1" as="geometry">
            <mxPoint x="1" as="offset" />
          </mxGeometry>
        </mxCell>
        <mxCell id="314BIVoi5Dq9aIjE5J6p-52" value="" style="endArrow=classic;html=1;rounded=0;entryX=0.077;entryY=0.014;entryDx=0;entryDy=0;entryPerimeter=0;strokeWidth=5;" parent="1" edge="1">
          <mxGeometry width="50" height="50" relative="1" as="geometry">
            <mxPoint x="2022" y="3388" as="sourcePoint" />
            <mxPoint x="2022" y="3487" as="targetPoint" />
          </mxGeometry>
        </mxCell>
        <mxCell id="314BIVoi5Dq9aIjE5J6p-53" value="" style="endArrow=classic;html=1;rounded=0;entryX=0;entryY=0.75;entryDx=0;entryDy=0;strokeWidth=4;" parent="1" edge="1">
          <mxGeometry width="50" height="50" relative="1" as="geometry">
            <mxPoint x="2788" y="4482" as="sourcePoint" />
            <mxPoint x="2864" y="4294" as="targetPoint" />
            <Array as="points">
              <mxPoint x="2788" y="4294" />
            </Array>
          </mxGeometry>
        </mxCell>
        <mxCell id="314BIVoi5Dq9aIjE5J6p-54" value="" style="endArrow=classic;html=1;rounded=0;strokeWidth=4;startArrow=oval;startFill=1;targetPerimeterSpacing=27;sourcePerimeterSpacing=4;endSize=12;startSize=16;" parent="1" edge="1">
          <mxGeometry width="50" height="50" relative="1" as="geometry">
            <mxPoint x="2787" y="4295" as="sourcePoint" />
            <mxPoint x="2787" y="3689" as="targetPoint" />
          </mxGeometry>
        </mxCell>
        <mxCell id="314BIVoi5Dq9aIjE5J6p-55" value="" style="endArrow=none;html=1;rounded=0;strokeWidth=4;" parent="1" edge="1">
          <mxGeometry width="50" height="50" relative="1" as="geometry">
            <mxPoint x="1234.6664341517858" y="4480" as="sourcePoint" />
            <mxPoint x="2787" y="4480" as="targetPoint" />
          </mxGeometry>
        </mxCell>
        <mxCell id="314BIVoi5Dq9aIjE5J6p-56" value="rst_n" style="text;html=1;align=center;verticalAlign=middle;whiteSpace=wrap;rounded=0;fontSize=35;" parent="1" vertex="1">
          <mxGeometry x="1208" y="4395" width="137" height="88" as="geometry" />
        </mxCell>
        <mxCell id="YkT5N6oE5cckf6qh70ge-6" value="CLK adn RESET" style="text;html=1;align=center;verticalAlign=middle;whiteSpace=wrap;rounded=0;fontSize=72;" vertex="1" parent="1">
          <mxGeometry x="2448" y="2919" width="569" height="30" as="geometry" />
        </mxCell>
      </root>
    </mxGraphModel>
  </diagram>
</mxfile>
